<svg width="144" height="32" viewBox="0 0 144 32" fill="none" xmlns="http://www.w3.org/2000/svg">
<g clip-path="url(#clip0_10_51953)">
<mask id="mask0_10_51953" style="mask-type:luminance" maskUnits="userSpaceOnUse" x="0" y="0" width="32" height="32">
<path d="M0 11.3778C0 7.3952 0 5.40387 0.775067 3.88273C1.45683 2.54469 2.54469 1.45683 3.88273 0.775067C5.40387 0 7.3952 0 11.3778 0H20.6222C24.6048 0 26.5961 0 28.1172 0.775067C29.4553 1.45683 30.5432 2.54469 31.2249 3.88273C32 5.40387 32 7.3952 32 11.3778V20.6222C32 24.6048 32 26.5961 31.2249 28.1172C30.5432 29.4553 29.4553 30.5432 28.1172 31.2249C26.5961 32 24.6048 32 20.6222 32H11.3778C7.3952 32 5.40387 32 3.88273 31.2249C2.54469 30.5432 1.45683 29.4553 0.775067 28.1172C0 26.5961 0 24.6048 0 20.6222V11.3778Z" fill="white"/>
</mask>
<g mask="url(#mask0_10_51953)">
<path d="M0 11.3778C0 7.3952 0 5.40387 0.775067 3.88273C1.45683 2.54469 2.54469 1.45683 3.88273 0.775067C5.40387 0 7.3952 0 11.3778 0H20.6222C24.6048 0 26.5961 0 28.1172 0.775067C29.4553 1.45683 30.5432 2.54469 31.2249 3.88273C32 5.40387 32 7.3952 32 11.3778V20.6222C32 24.6048 32 26.5961 31.2249 28.1172C30.5432 29.4553 29.4553 30.5432 28.1172 31.2249C26.5961 32 24.6048 32 20.6222 32H11.3778C7.3952 32 5.40387 32 3.88273 31.2249C2.54469 30.5432 1.45683 29.4553 0.775067 28.1172C0 26.5961 0 24.6048 0 20.6222V11.3778Z" fill="white"/>
<path d="M32 0H0V32H32V0Z" fill="url(#paint0_linear_10_51953)"/>
</g>
<path fill-rule="evenodd" clip-rule="evenodd" d="M21.117 8.57954H18.0108V8.22059L17.0596 7.8517H16.2883L16.1275 7.76365C16.1348 7.74437 16.1381 7.72382 16.1374 7.70322C16.1366 7.68261 16.1318 7.66237 16.1232 7.64366C16.1145 7.62495 16.1022 7.60815 16.087 7.59425C16.0719 7.58035 16.054 7.56962 16.0347 7.5627V6.99463H15.9139V7.5627C15.884 7.57468 15.8584 7.59535 15.8403 7.62205C15.8222 7.64875 15.8126 7.68027 15.8125 7.71252C15.8133 7.72962 15.8166 7.74651 15.8225 7.76259L15.6599 7.85135H14.8525L13.9466 8.23373V8.57918H10.8202V8.24047L9.87289 7.97774H8.44731L7.5 8.24047V18.0165C7.50253 20.2462 8.38752 22.3838 9.96079 23.9603C11.5341 25.5368 13.6671 26.4234 15.8919 26.4257H16.0492C18.2738 26.4232 20.4066 25.5364 21.9796 23.9599C23.5527 22.3834 24.4375 20.246 24.44 18.0165V10.4821L23.2306 11.9767V18.0169C23.2284 19.925 22.4711 21.7543 21.1248 23.1036C19.7785 24.4528 17.9532 25.2118 16.0492 25.2139H15.8919C13.9881 25.2112 12.1631 24.4521 10.8169 23.103C9.47073 21.7539 8.71325 19.9248 8.71053 18.0169V9.73697H20.4533L21.5134 8.57954H21.117Z" fill="white"/>
</g>
<path d="M41.12 22V10.48H49.024V12.512H43.296V14.704H45.984C46.0907 14.704 46.24 14.7093 46.432 14.72C46.624 14.7253 46.7947 14.736 46.944 14.752C47.6053 14.8213 48.1547 15.0267 48.592 15.368C49.0347 15.704 49.3653 16.1333 49.584 16.656C49.808 17.1733 49.92 17.7387 49.92 18.352C49.92 18.9653 49.8107 19.5333 49.592 20.056C49.3733 20.5733 49.0427 21.0027 48.6 21.344C48.1627 21.68 47.6107 21.8827 46.944 21.952C46.7947 21.968 46.624 21.9813 46.432 21.992C46.2453 21.9973 46.096 22 45.984 22H41.12ZM43.296 19.968H45.888C46 19.968 46.1227 19.9627 46.256 19.952C46.3893 19.9413 46.512 19.9253 46.624 19.904C47.0667 19.808 47.36 19.6027 47.504 19.288C47.6533 18.9733 47.728 18.6613 47.728 18.352C47.728 18.0373 47.6533 17.7253 47.504 17.416C47.36 17.1013 47.0667 16.896 46.624 16.8C46.512 16.7733 46.3893 16.7573 46.256 16.752C46.1227 16.7413 46 16.736 45.888 16.736H43.296V19.968ZM52.6303 25.84L54.2943 21.264L54.3263 22.608L50.5663 13.36H52.8223L55.3503 19.904H54.8383L57.3503 13.36H59.5263L54.6463 25.84H52.6303ZM60.6353 22L60.6513 13.36H62.8593V17.52L65.7873 13.36H68.4753L65.3553 17.68L68.6833 22H65.8513L62.8593 17.84V22H60.6353ZM69.4634 22L69.4794 13.36H71.6874V17.52L74.6154 13.36H77.3034L74.1834 17.68L77.5114 22H74.6794L71.6874 17.84V22H69.4634ZM82.5475 22.24C81.6888 22.24 80.9715 22.04 80.3955 21.64C79.8195 21.24 79.3848 20.696 79.0915 20.008C78.8035 19.32 78.6595 18.544 78.6595 17.68C78.6595 16.816 78.8035 16.04 79.0915 15.352C79.3795 14.664 79.8035 14.12 80.3635 13.72C80.9235 13.32 81.6142 13.12 82.4355 13.12C83.2622 13.12 83.9822 13.3173 84.5955 13.712C85.2088 14.1067 85.6835 14.648 86.0195 15.336C86.3608 16.0187 86.5315 16.8 86.5315 17.68C86.5315 18.544 86.3635 19.32 86.0275 20.008C85.6968 20.696 85.2328 21.24 84.6355 21.64C84.0382 22.04 83.3422 22.24 82.5475 22.24ZM78.2915 25.84V13.36H80.2115V19.28H80.4835V25.84H78.2915ZM82.1955 20.304C82.6648 20.304 83.0488 20.1867 83.3475 19.952C83.6462 19.7173 83.8675 19.4027 84.0115 19.008C84.1555 18.608 84.2275 18.1653 84.2275 17.68C84.2275 17.2 84.1528 16.7627 84.0035 16.368C83.8542 15.968 83.6222 15.6507 83.3075 15.416C82.9982 15.176 82.6008 15.056 82.1155 15.056C81.6622 15.056 81.2942 15.1653 81.0115 15.384C80.7342 15.6027 80.5315 15.9093 80.4035 16.304C80.2755 16.6987 80.2115 17.1573 80.2115 17.68C80.2115 18.2027 80.2755 18.6613 80.4035 19.056C80.5315 19.4507 80.7395 19.7573 81.0275 19.976C81.3208 20.1947 81.7102 20.304 82.1955 20.304ZM92.1799 22.24C91.3105 22.24 90.5479 22.0453 89.8919 21.656C89.2359 21.2667 88.7239 20.7307 88.3559 20.048C87.9932 19.36 87.8119 18.5707 87.8119 17.68C87.8119 16.7787 87.9985 15.9867 88.3719 15.304C88.7452 14.616 89.2599 14.08 89.9159 13.696C90.5719 13.312 91.3265 13.12 92.1799 13.12C93.0492 13.12 93.8119 13.3147 94.4679 13.704C95.1292 14.0933 95.6439 14.632 96.0119 15.32C96.3799 16.0027 96.5639 16.7893 96.5639 17.68C96.5639 18.576 96.3772 19.368 96.0039 20.056C95.6359 20.7387 95.1212 21.2747 94.4599 21.664C93.8039 22.048 93.0439 22.24 92.1799 22.24ZM92.1799 20.208C92.8785 20.208 93.3985 19.9733 93.7399 19.504C94.0865 19.0293 94.2599 18.4213 94.2599 17.68C94.2599 16.912 94.0839 16.2987 93.7319 15.84C93.3852 15.3813 92.8679 15.152 92.1799 15.152C91.7052 15.152 91.3159 15.2587 91.0119 15.472C90.7079 15.6853 90.4812 15.9813 90.3319 16.36C90.1879 16.7387 90.1159 17.1787 90.1159 17.68C90.1159 18.4533 90.2892 19.0693 90.6359 19.528C90.9879 19.9813 91.5025 20.208 92.1799 20.208ZM102.131 22.24C101.235 22.24 100.467 22.04 99.8271 21.64C99.1871 21.24 98.6965 20.696 98.3551 20.008C98.0138 19.32 97.8431 18.544 97.8431 17.68C97.8431 16.8053 98.0191 16.024 98.3711 15.336C98.7285 14.648 99.2298 14.1067 99.8751 13.712C100.52 13.3173 101.283 13.12 102.163 13.12C103.182 13.12 104.035 13.3787 104.723 13.896C105.416 14.408 105.859 15.1093 106.051 16L103.875 16.576C103.747 16.128 103.523 15.7787 103.203 15.528C102.888 15.2773 102.531 15.152 102.131 15.152C101.672 15.152 101.296 15.264 101.003 15.488C100.71 15.7067 100.494 16.008 100.355 16.392C100.216 16.7707 100.147 17.2 100.147 17.68C100.147 18.432 100.312 19.0427 100.643 19.512C100.979 19.976 101.475 20.208 102.131 20.208C102.622 20.208 102.995 20.096 103.251 19.872C103.507 19.648 103.699 19.328 103.827 18.912L106.051 19.376C105.806 20.2933 105.342 21 104.659 21.496C103.976 21.992 103.134 22.24 102.131 22.24ZM111.225 22.24C110.329 22.24 109.561 22.04 108.921 21.64C108.281 21.24 107.79 20.696 107.449 20.008C107.108 19.32 106.937 18.544 106.937 17.68C106.937 16.8053 107.113 16.024 107.465 15.336C107.822 14.648 108.324 14.1067 108.969 13.712C109.614 13.3173 110.377 13.12 111.257 13.12C112.276 13.12 113.129 13.3787 113.817 13.896C114.51 14.408 114.953 15.1093 115.145 16L112.969 16.576C112.841 16.128 112.617 15.7787 112.297 15.528C111.982 15.2773 111.625 15.152 111.225 15.152C110.766 15.152 110.39 15.264 110.097 15.488C109.804 15.7067 109.588 16.008 109.449 16.392C109.31 16.7707 109.241 17.2 109.241 17.68C109.241 18.432 109.406 19.0427 109.737 19.512C110.073 19.976 110.569 20.208 111.225 20.208C111.716 20.208 112.089 20.096 112.345 19.872C112.601 19.648 112.793 19.328 112.921 18.912L115.145 19.376C114.9 20.2933 114.436 21 113.753 21.496C113.07 21.992 112.228 22.24 111.225 22.24ZM124.441 13.36V22H122.361V16.72L118.457 22H116.729V13.36H118.809V18.464L122.729 13.36H124.441ZM126.667 22V13.36H128.843V16.656H132.395V13.36H134.571V22H132.395V18.688H128.843V22H126.667ZM136.808 22V13.36H143.048V15.392H138.984V22H136.808Z" fill="#092035"/>
<defs>
<linearGradient id="paint0_linear_10_51953" x1="0" y1="0" x2="32" y2="32" gradientUnits="userSpaceOnUse">
<stop stop-color="#698AFF"/>
<stop offset="1" stop-color="#0034B9"/>
</linearGradient>
<clipPath id="clip0_10_51953">
<rect width="32" height="32" fill="white"/>
</clipPath>
</defs>
</svg>
